<?xml version="1.0" encoding="utf-8"?>
<!DOCTYPE svg PUBLIC "-//W3C//DTD SVG 1.1//EN" "http://www.w3.org/Graphics/SVG/1.1/DTD/svg11.dtd">
<svg>

<symbol fill="none" xmlns="http://www.w3.org/2000/svg" id="arrow">
<g id="Arrow - Right 2">
<path id="Stroke 1" d="M8.5 1L1.5 8L8.5 15" stroke="#200E32" stroke-width="1.5" stroke-linecap="round" stroke-linejoin="round"></path>
</g>
</symbol>

<symbol width="40" height="40" viewbox="0 0 40 40" fill="none" xmlns="http://www.w3.org/2000/svg" id="arrow-down">
<path d="M20.4572 32.9167V7.91667" stroke="white" stroke-width="1.2" stroke-linecap="round" stroke-linejoin="round"></path>
<path d="M30.4978 22.8337L20.4578 32.917L10.4162 22.8337" stroke="white" stroke-width="1.2" stroke-linecap="round" stroke-linejoin="round"></path>
</symbol>

<symbol width="24" height="24" viewbox="0 0 24 24" xmlns="http://www.w3.org/2000/svg" id="circle">
<g>
<circle cx="12" cy="12" r="11.5" stroke="white"></circle>
</g>
</symbol>

<symbol width="24" height="24" viewbox="0 0 24 24" xmlns="http://www.w3.org/2000/svg" id="circle-with-dot">
<g>
<circle cx="12" cy="12" r="6" fill="white"></circle>
<circle cx="12" cy="12" r="11.5" stroke="white"></circle>
</g>
</symbol>

<symbol width="19" height="21" viewbox="0 0 19 21" fill="none" xmlns="http://www.w3.org/2000/svg" id="delete">
<path d="M16.8249 7.9682C16.8249 7.9682 16.2819 14.7032 15.9669 17.5402C15.8169 18.8952 14.9799 19.6892 13.6089 19.7142C10.9999 19.7612 8.38791 19.7642 5.77991 19.7092C4.46091 19.6822 3.63791 18.8782 3.49091 17.5472C3.17391 14.6852 2.63391 7.9682 2.63391 7.9682" stroke="#1E1E1E" stroke-width="1.5" stroke-linecap="round" stroke-linejoin="round"></path>
<path d="M18.2082 4.73969H1.25024" stroke="#1E1E1E" stroke-width="1.5" stroke-linecap="round" stroke-linejoin="round"></path>
<path d="M14.9407 4.73967C14.1557 4.73967 13.4797 4.18467 13.3257 3.41567L13.0827 2.19967C12.9327 1.63867 12.4247 1.25067 11.8457 1.25067H7.6127C7.0337 1.25067 6.5257 1.63867 6.3757 2.19967L6.1327 3.41567C5.9787 4.18467 5.3027 4.73967 4.5177 4.73967" stroke="#1E1E1E" stroke-width="1.5" stroke-linecap="round" stroke-linejoin="round"></path>
</symbol>

<symbol xmlns="http://www.w3.org/2000/svg" width="21" height="19" viewBox="0 0 21 19" id="heart">
<path fill-rule="evenodd" clip-rule="evenodd" d="M4.98311 0.315291C1.31152 1.49738 -0.326136 5.50569 0.90482 9.32952C1.52947 11.1301 2.54534 12.7485 3.88004 14.0762C5.71101 15.8545 7.72254 17.4194 9.88488 18.7491L10.1304 18.8961C10.3656 19.0369 10.6598 19.0344 10.8926 18.8897L11.1218 18.7473C13.2812 17.4194 15.2927 15.8545 17.1174 14.0824C18.4584 12.7485 19.4743 11.1301 20.0937 9.34515C21.3291 5.50801 19.6847 1.4978 16.012 0.31535L15.7463 0.236231C14.0624 -0.226913 12.273 0.00130112 10.7645 0.855348L10.4964 1.01429L10.233 0.856235C8.64194 -0.04656 6.7404 -0.249969 4.98311 0.315291ZM9.87465 2.35427L10.0714 2.49538C10.3307 2.68111 10.6806 2.67742 10.936 2.48625C12.266 1.49057 13.9873 1.20082 15.5641 1.70669C18.4097 2.62284 19.7047 5.78096 18.7064 8.88199C18.165 10.4417 17.2687 11.8696 16.0916 13.0405L15.5636 13.5421C14.141 14.8642 12.6026 16.061 10.9691 17.1156L10.5013 17.4098L10.644 17.4998C8.58049 16.2308 6.65375 14.7319 4.90582 13.0343C3.73505 11.8696 2.83877 10.4417 2.29207 8.86635C1.29808 5.77801 2.58746 2.62212 5.43153 1.70646C6.93331 1.22339 8.57056 1.46289 9.87465 2.35427ZM14.3703 3.98374C13.9855 3.86093 13.5739 4.07304 13.451 4.45749C13.3281 4.84194 13.5404 5.25316 13.9252 5.37597C14.6814 5.61735 15.2206 6.29803 15.2881 7.10096C15.322 7.50313 15.6757 7.80175 16.0782 7.76794C16.4807 7.73413 16.7796 7.3807 16.7457 6.97853C16.6288 5.58859 15.6917 4.40551 14.3703 3.98374Z"></path>
</symbol>

</svg>